<?xml version="1.0" encoding="utf-8"?>
<!-- Generator: Adobe Illustrator 19.2.1, SVG Export Plug-In . SVG Version: 6.00 Build 0)  -->
<svg version="1.1" id="layer" xmlns="http://www.w3.org/2000/svg" xmlns:xlink="http://www.w3.org/1999/xlink" x="0px" y="0px"
	 viewBox="0 0 652 652" style="enable-background:new 0 0 652 652;" xml:space="preserve">
<style type="text/css">
	.st0{fill:#004A8F;}
	.st1{fill:#001F79;}
	.st2{fill:#FFFFFF;}
	.st3{clip-path:url(#SVGID_2_);fill:#FFFFFF;}
	.st4{clip-path:url(#SVGID_2_);fill:#EE0000;}
	.st5{clip-path:url(#SVGID_2_);fill:#001F79;}
</style>
<rect x="20.7" y="272.2" class="st0" width="600" height="99.7"/>
<rect x="120.7" y="272.2" class="st1" width="500" height="99.7"/>
<polygon class="st2" points="182.6,345.6 182.6,327.3 168,327.3 168,345.6 152.5,345.6 152.5,298.4 168,298.4 168,314.4 
	182.6,314.4 182.6,298.4 198.2,298.4 198.2,345.6 "/>
<g>
	<defs>
		<rect id="SVGID_1_" x="20.7" y="272.2" width="600" height="99.7"/>
	</defs>
	<clipPath id="SVGID_2_">
		<use xlink:href="#SVGID_1_"  style="overflow:visible;"/>
	</clipPath>
	<path class="st3" d="M222.8,310.2h4c2.9,0,5,0.3,6.4,0.9c1,0.4,1.8,1.1,2.5,2.1c0.7,1,1.2,2.2,1.6,3.7c0.4,1.5,0.5,3.1,0.5,4.8
		c0,2.8-0.4,5.1-1.2,6.9c-0.8,1.9-1.9,3.2-3.4,4c-1.5,0.8-3.7,1.2-6.6,1.2l-3.9,0V310.2z M228.9,345.6c3.7,0,6.7-0.3,9.2-1
		c2.5-0.7,4.5-1.5,6.1-2.5c1.6-1,3-2.4,4.3-4.2c1.3-1.8,2.5-4.1,3.4-6.9c0.9-2.8,1.4-5.9,1.4-9.4c0-5.2-1-9.6-3-13.2
		c-2-3.6-4.8-6.2-8.3-7.7c-3.5-1.5-7.7-2.3-12.6-2.3h-21.6v47.2H228.9z"/>
	<polygon class="st3" points="260.3,345.6 260.3,298.4 297.2,298.4 297.2,310.1 275.7,310.1 275.7,317.6 292.9,317.6 292.9,329 
		275.7,329 275.7,345.6 	"/>
	<path class="st3" d="M349.4,316.5h-14.7c-0.3-2.3-1.1-4.2-2.6-5.5c-1.4-1.3-3.2-1.9-5.4-1.9c-2.7,0-5,1.1-6.7,3.2
		c-1.7,2.1-2.6,5.6-2.6,10.3c0,3.3,0.4,5.8,1.1,7.5c0.7,1.7,1.8,3,3.1,3.8c1.3,0.8,3,1.2,5,1.2c2.4,0,4.3-0.6,5.7-2
		c1.4-1.3,2.3-3.2,2.5-5.8h15c-0.3,2.9-0.9,5.4-1.8,7.4c-0.8,2-2.3,4-4.3,6c-2,2-4.4,3.6-7.1,4.6c-2.8,1.1-5.9,1.6-9.6,1.6
		c-3.6,0-7-0.5-10-1.6c-3.1-1.1-5.6-2.6-7.7-4.5c-2.1-2-3.7-4.2-4.9-6.8c-1.7-3.5-2.5-7.4-2.5-11.8c0-3.6,0.6-7.1,1.8-10.2
		c1.2-3.1,2.8-5.8,4.9-8c2.1-2.1,4.4-3.7,7-4.8c3.2-1.4,6.8-2,10.8-2c3.4,0,6.6,0.5,9.7,1.5c3,1,5.5,2.5,7.4,4.5
		c1.9,2,3.4,4.2,4.5,6.8C348.6,311.7,349.1,313.9,349.4,316.5"/>
	<path class="st3" d="M399.2,309.1c2.2,0,3.6,0.1,4.3,0.3c0.9,0.3,1.7,0.8,2.2,1.4c0.5,0.7,0.8,1.5,0.8,2.5c0,1.2-0.5,2.2-1.4,3
		c-1,0.8-2.6,1.1-5,1.1h-5.9v-8.3H399.2z M403.1,345.6c3.7,0,6.3-0.2,7.8-0.5c1.5-0.3,3-0.9,4.6-1.6c1.5-0.8,2.7-1.6,3.5-2.4
		c1.2-1.1,2.1-2.5,2.8-4.1c0.7-1.6,1-3.5,1-5.5c0-2.8-0.7-5.2-2.1-7.1c-1.4-1.9-3.4-3.2-5.8-3.9c4.1-2.6,6.2-5.9,6.2-10
		c0-4.2-1.8-7.4-5.4-9.6c-2.8-1.7-7.1-2.5-12.9-2.5h-23.5v47.2H403.1z M400.6,325.9c3.1,0,5.1,0.4,6.1,1.2c0.9,0.8,1.4,1.8,1.4,3.2
		c0,1.4-0.5,2.5-1.5,3.3c-1,0.8-3,1.2-6,1.2h-6.4v-8.9H400.6z"/>
	<path class="st3" d="M457,329.7h-9.9l4.9-17.2L457,329.7z M442.4,345.6l1.8-6.2h15.5l1.8,6.2H477l-17-47.2h-15.8l-17,47.2H442.4z"
		/>
	<polygon class="st3" points="483.5,345.6 483.5,298.4 498,298.4 514.4,323.7 514.4,298.4 529.3,298.4 529.3,345.6 514.5,345.6 
		498.5,321 498.5,345.6 	"/>
	<polygon class="st3" points="539.7,345.6 539.7,298.4 554.7,298.4 554.7,314 568.8,298.4 587.1,298.4 569.7,316.2 588.9,345.6 
		570.2,345.6 558.9,326.8 554.7,330.9 554.7,345.6 	"/>
	<rect x="20.7" y="272.2" class="st4" width="100" height="99.7"/>
	<rect x="38.2" y="289.6" class="st3" width="65" height="64.8"/>
	<rect x="65.7" y="272.2" class="st3" width="10" height="99.7"/>
	<rect x="20.7" y="317" class="st3" width="100" height="10"/>
	<rect x="55.7" y="307.1" class="st5" width="30" height="29.9"/>
</g>
</svg>
