<svg width="323" height="99" viewBox="0 0 323 99" fill="none" xmlns="http://www.w3.org/2000/svg">
<path fill-rule="evenodd" clip-rule="evenodd" d="M53 96H62.5596L70 68H60.4875L53 96Z" fill="#005B76"/>
<path fill-rule="evenodd" clip-rule="evenodd" d="M103 96H112.512L120 68H110.488L103 96Z" fill="#005B76"/>
<path fill-rule="evenodd" clip-rule="evenodd" d="M152 96H161.512L169 68H159.488L152 96Z" fill="#005B76"/>
<path fill-rule="evenodd" clip-rule="evenodd" d="M94.0856 77.5379H103.769C105.057 71.258 100.955 68 91.4619 68C80.4903 68 73.0487 73.2884 70.5682 82.543C68.3261 90.9005 72.7625 96 83.114 96C93.5131 96 99.7145 92.7892 102.338 85.6121H92.6545C91.3188 88.7757 88.7429 90.4283 85.356 90.4283C80.6811 90.4283 78.8684 87.5008 80.2995 82.1653C81.7783 76.6408 85.3083 73.5717 90.0308 73.5717C92.893 73.5717 94.2764 74.8938 94.0856 77.5379Z" fill="#005B76"/>
<path fill-rule="evenodd" clip-rule="evenodd" d="M143.086 77.5379H152.769C154.057 71.258 149.955 68 140.462 68C129.49 68 122.049 73.2884 119.568 82.543C117.326 90.9005 121.763 96 132.114 96C142.513 96 148.714 92.7892 151.338 85.6121H141.654C140.319 88.7757 137.743 90.4283 134.356 90.4283C129.681 90.4283 127.868 87.5008 129.3 82.1653C130.778 76.6408 134.308 73.5717 139.031 73.5717C141.893 73.5717 143.276 74.8938 143.086 77.5379Z" fill="#005B76"/>
<path fill-rule="evenodd" clip-rule="evenodd" d="M148.689 15.2049C161.584 2.44552 177.19 -0.827331 183.423 7.85285C189.656 16.5805 184.184 34.0831 171.29 46.7951C158.396 59.5545 142.789 62.8273 136.556 54.1472C130.371 45.467 135.795 27.9643 148.689 15.2049Z" fill="#F99D28"/>
<path fill-rule="evenodd" clip-rule="evenodd" d="M157.158 8.28311C155.769 9.32068 154.285 10.5469 152.849 11.9146C141.455 22.9506 136.763 38.1368 142.364 45.7299C148.157 53.323 162.137 50.5404 173.674 39.363C179.898 33.4206 184.111 26.4406 185.835 19.9793C186.361 15.2159 185.643 11.0185 183.489 7.81149C178.51 1.06729 167.834 1.58607 157.158 8.28311Z" fill="#AF2A30"/>
<path fill-rule="evenodd" clip-rule="evenodd" d="M163.245 52.9397C157.242 57.4559 151.05 59.7378 145 58.787C147.552 58.9296 149.585 56.0773 151.287 52.2742C152.988 48.3761 154.028 44.7631 154.832 41.3879C156.013 36.0161 156.108 32.213 155.493 31.4048C154.453 30.0262 152.137 30.4065 149.49 31.9278C148.214 32.6408 146.56 32.1655 148.545 29.741C150.578 27.3165 158.518 21.4218 161.402 20.5185C164.569 19.6153 168.161 20.8513 166.932 24.3216C166.081 26.7936 155.021 55.9822 163.245 52.9397ZM172.273 7.7307C173.786 9.25193 172.84 12.5321 170.335 15.0992C167.783 17.6662 164.427 18.5695 162.962 17.0958C161.402 15.6221 162.347 12.2944 164.9 9.67976C167.499 7.06515 170.855 6.257 172.273 7.7307Z" fill="white"/>
<path fill-rule="evenodd" clip-rule="evenodd" d="M184.195 91.5541L186.358 83.3716H192.612C197.408 83.3716 199.524 84.223 198.678 87.5338C197.878 90.5608 195.527 91.5541 191.201 91.5541H184.195ZM189.32 72.3041H195.245C199.712 72.3041 201.734 72.8243 201.029 75.6622C200.276 78.4527 197.878 79.1622 193.27 79.1622H187.486L189.32 72.3041ZM177 96H191.295C195.339 96 198.396 95.6689 201.264 93.6824C203.192 92.3581 204.65 90.3243 205.214 88.1013C206.248 84.2703 204.509 81.6689 200.135 81.0541C204.273 80.2973 206.86 78.1216 207.706 74.8108C208.411 72.2568 207.847 70.4122 206.013 69.1824C204.509 68.1892 202.016 68 198.678 68H184.477L177 96Z" fill="#005B76"/>
<path fill-rule="evenodd" clip-rule="evenodd" d="M223.082 86.7657L222.986 87.0905C222.029 90.6636 219.063 92.7981 215.427 92.7981C212.795 92.7981 211.695 91.8237 212.173 89.9675C212.891 87.4617 215.14 86.7657 219.35 86.7657H223.082ZM220.785 95.5824H226.622C226.766 94.2831 227.101 92.8909 227.531 91.3132L229.636 83.6566C231.024 78.5986 228.44 76 221.886 76C215.57 76 211.408 78.1346 210.164 81.7077H215.762C216.479 79.8979 218.106 79.0626 220.785 79.0626C223.799 79.0626 224.852 80.362 224.086 83.1462L223.991 83.471H220.929C212.269 83.471 207.58 85.0023 206.241 89.8283C205.188 93.587 207.628 96 212.795 96C216.144 96 219.063 94.9327 221.407 92.891L220.785 95.5824Z" fill="#005B76"/>
<path fill-rule="evenodd" clip-rule="evenodd" d="M232 95.9526H237.756L240.423 85.9526C241.406 82.3033 244.681 79.7915 248.097 79.7915C251.467 79.7915 252.637 81.782 251.56 85.763L248.846 96H254.462L257.644 84.0095C259.001 78.9384 256.427 76 250.858 76C247.255 76 244.307 77.2322 241.827 79.8863L242.529 76.4265H236.867C236.305 79.5071 235.884 81.4028 235.697 82.1611L232 95.9526Z" fill="#005B76"/>
<path fill-rule="evenodd" clip-rule="evenodd" d="M260 96H265.657L268.509 85.4527L276.162 96H283.958L275.306 84.8378L287 76.4662H279.68L268.794 84.3649L273.215 68H267.558L260 96Z" fill="#005B76"/>
</svg>
