<svg width="63" height="28" viewBox="0 0 63 28" fill="none" xmlns="http://www.w3.org/2000/svg">
<path d="M13.8249 27.2916C21.4602 27.2916 27.6498 21.1822 27.6498 13.6458C27.6498 6.10944 21.4602 0 13.8249 0C6.18962 0 0 6.10944 0 13.6458C0 21.1822 6.18962 27.2916 13.8249 27.2916Z" fill="#FFD401"/>
<path d="M13.8608 25.5903C11.5865 25.5545 9.47339 24.9277 7.61097 23.6741C6.84093 23.1727 6.14252 22.528 5.44412 21.9729C5.06805 21.6685 4.90688 21.3103 4.97851 20.8089C5.08596 19.9672 6.01717 19.5016 6.75139 19.9314C6.94838 20.0567 7.14537 20.2716 7.36026 20.4328C10.709 23.6383 15.7591 24.1218 19.6093 21.4357C21.7582 19.9314 23.0834 17.8541 23.5311 15.2753C24.14 11.8012 23.0297 8.88221 20.4868 6.48256C19.0899 5.17528 17.3708 4.40524 15.4725 4.17244C15.0069 4.1008 14.5413 4.06499 14.0757 4.04708C13.4131 4.01127 12.9117 3.54566 12.9117 2.93679C12.9117 2.29211 13.4131 1.77278 14.0757 1.73696C15.2218 1.70115 16.35 1.89813 17.4603 2.23838C20.0391 3.00842 22.1522 4.44105 23.746 6.59C25.1786 8.52406 25.9487 10.7088 26.0919 13.1085C26.2173 15.8842 25.4472 18.4271 23.8176 20.6298C21.8836 23.2444 19.269 24.874 15.9919 25.3754C15.2039 25.4828 14.5413 25.5187 13.8608 25.5903Z" fill="#1C1C1F"/>
<path d="M4.11877 19.1975C3.45618 19.1975 2.91895 18.6961 2.91895 18.0514C2.91895 17.4067 3.45618 16.8874 4.08296 16.8516C4.69183 16.8158 5.28279 17.4247 5.3186 18.0156C5.3007 18.6603 4.76346 19.1975 4.11877 19.1975Z" fill="#1C1C1F"/>
<path d="M13.943 18.9254C15.1429 18.9254 16.092 18.6567 16.7904 18.1195C17.4888 17.5823 17.8649 16.848 17.8649 15.9526C17.8649 15.0752 17.4888 14.3409 16.7904 13.8037C16.3964 13.4993 15.5905 13.1053 14.3728 12.6397C13.9788 12.4785 13.6744 12.3711 13.4953 12.2994C13.3342 12.2278 13.1014 12.1383 12.8506 11.995C12.582 11.8696 12.4209 11.7264 12.2776 11.601C12.1701 11.4757 12.1164 11.3324 12.1164 11.225C12.1164 10.9563 12.2776 10.7235 12.582 10.5803C12.8865 10.4191 13.3162 10.3475 13.8177 10.3475C14.6593 10.3475 15.4294 10.6519 16.1636 11.2429L17.6679 10.0072C16.7367 8.93274 15.4652 8.39551 13.8893 8.39551C12.779 8.39551 11.8478 8.62831 11.1136 9.12973C10.3794 9.63115 10.0033 10.2937 10.0033 11.1354C10.0033 11.5115 10.0749 11.798 10.1645 12.1024C10.254 12.4069 10.4331 12.6039 10.5584 12.8009C10.6838 12.9978 10.9524 13.1769 11.2927 13.3739C11.6329 13.5709 11.9373 13.75 12.1701 13.8395C12.4029 13.947 12.779 14.1081 13.2446 14.3051C13.2804 14.3051 13.3521 14.3409 13.37 14.3409C13.4774 14.4126 13.5132 14.4126 13.549 14.4126C13.5849 14.4126 13.6207 14.4484 13.6744 14.4842C14.1758 14.6812 14.5519 14.8603 14.7847 14.9498C15.0175 15.0752 15.2503 15.2184 15.4473 15.3796C15.6443 15.5408 15.7517 15.7557 15.7517 15.9526C15.7517 16.2929 15.5905 16.5615 15.2861 16.7227C14.9817 16.8839 14.5877 16.9913 14.0863 16.9913C13.0834 16.9913 12.1701 16.5973 11.3464 15.7915L9.87793 17.1346C10.3077 17.7076 10.8808 18.1374 11.615 18.4418C12.2776 18.7463 13.0834 18.9254 13.943 18.9254Z" fill="#1C1C1F"/>
<path d="M41.4746 13.6813C41.4746 14.523 41.3493 15.2572 41.0807 15.884C40.812 16.5286 40.4718 17.0838 40.042 17.5315C39.6122 17.9613 39.1108 18.3373 38.5377 18.5343C37.9647 18.7671 37.3916 18.8746 36.8007 18.8746C35.9948 18.8746 35.2964 18.7134 34.7592 18.3373C34.2219 17.9613 33.7563 17.5673 33.4161 17.1017V21.6861H31.106V8.64916H33.4161L33.3803 10.3146C33.7563 9.77736 34.2219 9.34757 34.7592 8.9715C35.2964 8.59544 35.959 8.43427 36.8007 8.43427C37.4095 8.43427 37.9647 8.54171 38.5377 8.77451C39.1108 9.00732 39.5764 9.34757 40.0062 9.77736C40.436 10.2071 40.812 10.7802 41.0448 11.4249C41.3314 12.0696 41.4746 12.8396 41.4746 13.6813ZM39.5406 13.6813C39.5406 13.1799 39.4689 12.7501 39.3078 12.3382C39.1466 11.9263 38.9317 11.604 38.6989 11.3353C38.4303 11.0667 38.1259 10.8339 37.8035 10.6907C37.4633 10.5295 37.1051 10.4579 36.6932 10.4579C36.2813 10.4579 35.9232 10.5295 35.5829 10.6907C35.2069 10.8518 34.9203 11.0667 34.6517 11.3533C34.3831 11.6577 34.1861 11.9979 34.007 12.3561C33.8459 12.7501 33.7742 13.1978 33.7742 13.6992C33.7742 14.2006 33.8459 14.6304 34.007 15.0423C34.1682 15.4542 34.3831 15.7765 34.6517 16.0451C34.9203 16.3496 35.2248 16.5465 35.5829 16.7077C35.959 16.8689 36.3172 16.9405 36.6932 16.9405C37.0872 16.9405 37.4633 16.8689 37.8035 16.7077C38.1438 16.5465 38.4482 16.3316 38.6989 16.063C38.9675 15.7944 39.1645 15.4542 39.3078 15.0602C39.4689 14.6125 39.5406 14.1469 39.5406 13.6813Z" fill="white"/>
<path d="M46.4888 19.0538C47.6528 19.0538 48.602 18.7135 49.3004 18.0151V18.821H51.503V12.2667C51.503 9.75956 50.16 8.4881 47.4917 8.4881C45.9874 8.4881 44.6443 8.88207 43.4087 9.65211L44.1071 11.4966C45.1457 10.834 46.2202 10.458 47.3126 10.458C48.6557 10.458 49.3183 11.0668 49.3183 12.2667V12.8755C48.6199 12.4995 47.7782 12.3383 46.8112 12.3383C45.7009 12.3383 44.7697 12.6069 43.9638 13.18C43.158 13.753 42.7998 14.5768 42.7998 15.6513C42.7998 16.7257 43.1401 17.5674 43.8385 18.1225C44.5548 18.6956 45.3964 19.0538 46.4888 19.0538ZM46.9365 17.0481C46.3277 17.0481 45.8262 16.9227 45.5039 16.672C45.1636 16.4392 45.0025 16.099 45.0025 15.705C45.0025 15.2394 45.1995 14.8991 45.6472 14.6663C46.0411 14.4335 46.5784 14.2903 47.2231 14.2903C48.0647 14.2903 48.7631 14.4514 49.372 14.7559V16.0631C48.6736 16.7257 47.8677 17.0481 46.9365 17.0481Z" fill="white"/>
<path d="M57.6993 22.5459L63.0001 8.61359H60.6541L58.344 14.7739C58.3082 14.8455 58.2724 14.9351 58.2366 15.0783C58.2008 15.2037 58.1649 15.3111 58.1112 15.4544C58.0754 15.5619 58.0396 15.6514 58.0038 15.7588C57.8963 15.3828 57.8068 15.0962 57.6993 14.8276L55.3892 8.66731H53.0791L56.8577 18.5704L55.3176 22.5817H57.6993V22.5459Z" fill="white"/>
</svg>
